<?xml version="1.0" encoding="UTF-8" standalone="no"?>
<!DOCTYPE svg PUBLIC "-//W3C//DTD SVG 1.1//EN" "http://www.w3.org/Graphics/SVG/1.1/DTD/svg11.dtd">
<svg width="100%" height="100%" viewBox="0 0 358 106" version="1.1" xmlns="http://www.w3.org/2000/svg" xmlns:xlink="http://www.w3.org/1999/xlink" xml:space="preserve" xmlns:serif="http://www.serif.com/" style="fill-rule:evenodd;clip-rule:evenodd;stroke-linejoin:round;stroke-miterlimit:1.41421;">
    <path d="M90.5,0C105.126,0 117,11.874 117,26.5L117,79.5C117,94.126 105.126,106 90.5,106L26.5,106C11.874,106 0,94.126 0,79.5L0,26.5C0,11.874 11.874,0 26.5,0L90.5,0ZM88.033,34.733C89.056,34.733 89.878,35.044 90.5,35.667C91.122,36.289 91.433,37.111 91.433,38.133L91.433,67.867C91.433,68.844 91.122,69.656 90.5,70.3C89.878,70.944 89.056,71.267 88.033,71.267C87.056,71.267 86.244,70.944 85.6,70.3C84.956,69.656 84.633,68.844 84.633,67.867L84.633,67.133C83.211,68.556 81.522,69.656 79.567,70.433C77.611,71.211 75.522,71.6 73.3,71.6C70.233,71.6 67.478,70.933 65.033,69.6C62.589,68.267 60.678,66.322 59.3,63.767C57.922,61.211 57.233,58.133 57.233,54.533L57.233,38.133C57.233,37.156 57.556,36.344 58.2,35.7C58.844,35.056 59.656,34.733 60.633,34.733C61.611,34.733 62.422,35.056 63.067,35.7C63.711,36.344 64.033,37.156 64.033,38.133L64.033,54.533C64.033,58.133 65,60.856 66.933,62.7C68.867,64.544 71.433,65.467 74.633,65.467C76.5,65.467 78.2,65.089 79.733,64.333C81.267,63.578 82.467,62.556 83.333,61.267C84.2,59.978 84.633,58.533 84.633,56.933L84.633,38.133C84.633,37.111 84.956,36.289 85.6,35.667C86.244,35.044 87.056,34.733 88.033,34.733ZM43.433,34.4C45.789,34.4 47.633,34.756 48.967,35.467C50.3,36.178 50.967,37.067 50.967,38.133C50.967,38.444 50.944,38.667 50.9,38.8C50.5,40.222 49.611,40.933 48.233,40.933C48.011,40.933 47.678,40.889 47.233,40.8C45.456,40.489 44.011,40.333 42.9,40.333C39.7,40.333 37.122,41.067 35.167,42.533C33.211,44 32.233,45.978 32.233,48.467L32.233,67.933C32.233,69 31.956,69.822 31.4,70.4C30.844,70.978 30.011,71.267 28.9,71.267C27.833,71.267 27.011,70.989 26.433,70.433C25.856,69.878 25.567,69.044 25.567,67.933L25.567,38.133C25.567,37.067 25.856,36.244 26.433,35.667C27.011,35.089 27.833,34.8 28.9,34.8C31.122,34.8 32.233,35.911 32.233,38.133L32.233,39.4C33.567,37.844 35.211,36.622 37.167,35.733C39.122,34.844 41.211,34.4 43.433,34.4Z" style="fill:rgb(223,0,43);"/>
    <g transform="matrix(1,0,0,1,-771.704,-796.818)">
        <path d="M931.104,832.818C933.46,832.818 935.304,833.173 936.638,833.884C937.971,834.595 938.638,835.484 938.638,836.551C938.638,836.862 938.615,837.084 938.571,837.218C938.171,838.64 937.282,839.351 935.904,839.351C935.682,839.351 935.349,839.306 934.904,839.218C933.127,838.906 931.682,838.751 930.571,838.751C927.371,838.751 924.793,839.484 922.838,840.951C920.882,842.418 919.904,844.395 919.904,846.884L919.904,866.351C919.904,867.418 919.627,868.24 919.071,868.818C918.515,869.395 917.682,869.684 916.571,869.684C915.504,869.684 914.682,869.406 914.104,868.851C913.527,868.295 913.238,867.462 913.238,866.351L913.238,836.551C913.238,835.484 913.527,834.662 914.104,834.084C914.682,833.506 915.504,833.218 916.571,833.218C918.793,833.218 919.904,834.329 919.904,836.551L919.904,837.818C921.238,836.262 922.882,835.04 924.838,834.151C926.793,833.262 928.882,832.818 931.104,832.818Z" style="fill:rgb(223,0,43);fill-rule:nonzero;"/>
        <path d="M959.504,869.951C955.949,869.951 952.771,869.162 949.971,867.584C947.171,866.006 944.993,863.818 943.438,861.018C941.882,858.218 941.104,855.04 941.104,851.484C941.104,847.884 941.882,844.684 943.438,841.884C944.993,839.084 947.171,836.895 949.971,835.318C952.771,833.74 955.949,832.951 959.504,832.951C963.015,832.951 966.16,833.74 968.938,835.318C971.715,836.895 973.893,839.084 975.471,841.884C977.049,844.684 977.838,847.884 977.838,851.484C977.838,855.04 977.06,858.218 975.504,861.018C973.949,863.818 971.782,866.006 969.004,867.584C966.227,869.162 963.06,869.951 959.504,869.951ZM959.504,863.951C961.771,863.951 963.804,863.418 965.604,862.351C967.404,861.284 968.804,859.806 969.804,857.918C970.804,856.029 971.304,853.884 971.304,851.484C971.304,849.084 970.804,846.929 969.804,845.018C968.804,843.106 967.404,841.618 965.604,840.551C963.804,839.484 961.771,838.951 959.504,838.951C957.238,838.951 955.204,839.484 953.404,840.551C951.604,841.618 950.193,843.106 949.171,845.018C948.149,846.929 947.638,849.084 947.638,851.484C947.638,853.884 948.149,856.029 949.171,857.918C950.193,859.806 951.604,861.284 953.404,862.351C955.204,863.418 957.238,863.951 959.504,863.951Z" style="fill:rgb(223,0,43);fill-rule:nonzero;"/>
        <path d="M1018.04,833.151C1019.06,833.151 1019.88,833.462 1020.5,834.084C1021.13,834.706 1021.44,835.529 1021.44,836.551L1021.44,866.284C1021.44,867.262 1021.13,868.073 1020.5,868.718C1019.88,869.362 1019.06,869.684 1018.04,869.684C1017.06,869.684 1016.25,869.362 1015.6,868.718C1014.96,868.073 1014.64,867.262 1014.64,866.284L1014.64,865.551C1013.22,866.973 1011.53,868.073 1009.57,868.851C1007.62,869.629 1005.53,870.018 1003.3,870.018C1000.24,870.018 997.482,869.351 995.038,868.018C992.593,866.684 990.682,864.74 989.304,862.184C987.927,859.629 987.238,856.551 987.238,852.951L987.238,836.551C987.238,835.573 987.56,834.762 988.204,834.118C988.849,833.473 989.66,833.151 990.638,833.151C991.615,833.151 992.427,833.473 993.071,834.118C993.715,834.762 994.038,835.573 994.038,836.551L994.038,852.951C994.038,856.551 995.004,859.273 996.938,861.118C998.871,862.962 1001.44,863.884 1004.64,863.884C1006.5,863.884 1008.2,863.506 1009.74,862.751C1011.27,861.995 1012.47,860.973 1013.34,859.684C1014.2,858.395 1014.64,856.951 1014.64,855.351L1014.64,836.551C1014.64,835.529 1014.96,834.706 1015.6,834.084C1016.25,833.462 1017.06,833.151 1018.04,833.151Z" style="fill:rgb(223,0,43);fill-rule:nonzero;"/>
        <path d="M1048.97,863.018C1049.77,863.018 1050.45,863.329 1051,863.951C1051.56,864.573 1051.84,865.373 1051.84,866.351C1051.84,867.329 1051.47,868.129 1050.74,868.751C1050,869.373 1049.06,869.684 1047.9,869.684L1046.7,869.684C1044.53,869.684 1042.54,869.118 1040.74,867.984C1038.94,866.851 1037.53,865.306 1036.5,863.351C1035.48,861.395 1034.97,859.195 1034.97,856.751L1034.97,840.284L1031.9,840.284C1030.97,840.284 1030.21,840.018 1029.64,839.484C1029.06,838.951 1028.77,838.284 1028.77,837.484C1028.77,836.595 1029.06,835.884 1029.64,835.351C1030.21,834.818 1030.97,834.551 1031.9,834.551L1034.97,834.551L1034.97,824.951C1034.97,823.973 1035.28,823.173 1035.9,822.551C1036.53,821.929 1037.33,821.618 1038.3,821.618C1039.28,821.618 1040.08,821.929 1040.7,822.551C1041.33,823.173 1041.64,823.973 1041.64,824.951L1041.64,834.551L1047.3,834.551C1048.24,834.551 1048.99,834.818 1049.57,835.351C1050.15,835.884 1050.44,836.595 1050.44,837.484C1050.44,838.284 1050.15,838.951 1049.57,839.484C1048.99,840.018 1048.24,840.284 1047.3,840.284L1041.64,840.284L1041.64,856.751C1041.64,858.529 1042.13,860.018 1043.1,861.218C1044.08,862.418 1045.28,863.018 1046.7,863.018L1048.97,863.018Z" style="fill:rgb(223,0,43);fill-rule:nonzero;"/>
        <path d="M1092.9,850.884C1092.9,851.729 1092.62,852.429 1092.04,852.984C1091.46,853.54 1090.73,853.818 1089.84,853.818L1064.5,853.818C1064.99,856.929 1066.4,859.44 1068.74,861.351C1071.07,863.262 1073.93,864.218 1077.3,864.218C1078.64,864.218 1080.03,863.973 1081.47,863.484C1082.91,862.995 1084.1,862.395 1085.04,861.684C1085.66,861.195 1086.39,860.951 1087.24,860.951C1088.08,860.951 1088.75,861.173 1089.24,861.618C1090.04,862.284 1090.44,863.04 1090.44,863.884C1090.44,864.684 1090.08,865.351 1089.37,865.884C1087.86,867.084 1085.98,868.062 1083.74,868.818C1081.49,869.573 1079.35,869.951 1077.3,869.951C1073.66,869.951 1070.39,869.162 1067.5,867.584C1064.62,866.006 1062.36,863.818 1060.74,861.018C1059.12,858.218 1058.3,855.04 1058.3,851.484C1058.3,847.929 1059.07,844.74 1060.6,841.918C1062.14,839.095 1064.27,836.895 1067,835.318C1069.74,833.74 1072.84,832.951 1076.3,832.951C1079.73,832.951 1082.68,833.706 1085.17,835.218C1087.66,836.729 1089.57,838.84 1090.9,841.551C1092.24,844.262 1092.9,847.373 1092.9,850.884ZM1076.3,838.684C1073.06,838.684 1070.43,839.573 1068.4,841.351C1066.38,843.129 1065.1,845.506 1064.57,848.484L1086.77,848.484C1086.37,845.506 1085.26,843.129 1083.44,841.351C1081.62,839.573 1079.24,838.684 1076.3,838.684Z" style="fill:rgb(223,0,43);fill-rule:nonzero;"/>
        <path d="M1114.84,869.951C1111.82,869.951 1108.97,869.484 1106.3,868.551C1103.64,867.618 1101.55,866.395 1100.04,864.884C1099.46,864.306 1099.17,863.618 1099.17,862.818C1099.17,861.751 1099.62,860.884 1100.5,860.218C1101.35,859.595 1102.13,859.284 1102.84,859.284C1103.73,859.284 1104.57,859.684 1105.37,860.484C1106.21,861.418 1107.48,862.229 1109.17,862.918C1110.86,863.606 1112.66,863.951 1114.57,863.951C1117.1,863.951 1119.07,863.529 1120.47,862.684C1121.87,861.84 1122.57,860.706 1122.57,859.284C1122.57,857.906 1121.88,856.762 1120.5,855.851C1119.13,854.94 1116.79,854.173 1113.5,853.551C1104.97,851.906 1100.7,848.395 1100.7,843.018C1100.7,840.84 1101.35,838.995 1102.64,837.484C1103.93,835.973 1105.62,834.84 1107.7,834.084C1109.79,833.329 1112.02,832.951 1114.37,832.951C1117.26,832.951 1119.85,833.418 1122.14,834.351C1124.43,835.284 1126.24,836.573 1127.57,838.218C1128.15,838.929 1128.44,839.64 1128.44,840.351C1128.44,841.106 1128.06,841.795 1127.3,842.418C1126.82,842.773 1126.19,842.951 1125.44,842.951C1124.28,842.951 1123.24,842.529 1122.3,841.684C1121.19,840.662 1120.02,839.94 1118.77,839.518C1117.53,839.095 1116.02,838.884 1114.24,838.884C1112.19,838.884 1110.52,839.229 1109.2,839.918C1107.89,840.606 1107.24,841.573 1107.24,842.818C1107.24,843.706 1107.46,844.451 1107.9,845.051C1108.35,845.651 1109.19,846.206 1110.44,846.718C1111.68,847.229 1113.48,847.729 1115.84,848.218C1120.68,849.195 1124.12,850.551 1126.14,852.284C1128.16,854.018 1129.17,856.262 1129.17,859.018C1129.17,861.062 1128.62,862.918 1127.5,864.584C1126.39,866.251 1124.76,867.562 1122.6,868.518C1120.45,869.473 1117.86,869.951 1114.84,869.951Z" style="fill:rgb(223,0,43);fill-rule:nonzero;"/>
    </g>
</svg>
